<svg width="18" height="18" viewBox="0 0 18 18" fill="none" xmlns="http://www.w3.org/2000/svg">
<g id="Eye Off">
<path id="Shape" d="M1.66475 1.66475C1.46505 1.86445 1.4469 2.17695 1.61029 2.39716L1.66475 2.46025L4.69068 5.48617C3.24919 6.49827 2.17183 8.00994 1.72416 9.79829C1.64872 10.0997 1.83187 10.4051 2.13323 10.4805C2.4346 10.556 2.74005 10.3728 2.81549 10.0715C3.2126 8.48511 4.19334 7.1546 5.50062 6.29589L6.85785 7.65319C6.32721 8.19434 6 8.93569 6 9.75347C6 11.4103 7.34315 12.7535 9 12.7535C9.81778 12.7535 10.5591 12.4263 11.1003 11.8956L15.5398 16.3352C15.7594 16.5549 16.1156 16.5549 16.3352 16.3352C16.5349 16.1355 16.5531 15.8231 16.3897 15.6028L16.3352 15.5398L11.7501 10.9541L11.751 10.953L6.53908 5.74337L6.54 5.742L5.69004 4.89412L2.46025 1.66475C2.24058 1.44508 1.88442 1.44508 1.66475 1.66475ZM9 4.125C8.24981 4.125 7.52185 4.23605 6.83332 4.44375L7.76105 5.37089C8.1629 5.29149 8.5773 5.25 9 5.25C11.9423 5.25 14.4824 7.2602 15.1854 10.0749C15.2606 10.3763 15.566 10.5596 15.8674 10.4843C16.1688 10.409 16.3521 10.1037 16.2768 9.80228C15.4495 6.48954 12.4616 4.125 9 4.125ZM9.14601 6.75696L11.997 9.6075C11.9207 8.06481 10.6854 6.83073 9.14601 6.75696Z" fill="#fff"/>
</g>
</svg>
